<?xml version="1.0" encoding="UTF-8" standalone="no"?>
<!DOCTYPE svg PUBLIC "-//W3C//DTD SVG 1.1//EN"
 "http://www.w3.org/Graphics/SVG/1.1/DTD/svg11.dtd">
<!-- Generated by graphviz version 12.2.1 (20241206.2353)
 -->
<!-- Pages: 1 -->
<svg width="588pt" height="98pt"
 viewBox="0.00 0.00 588.50 98.00" xmlns="http://www.w3.org/2000/svg" xmlns:xlink="http://www.w3.org/1999/xlink">
<g id="graph0" class="graph" transform="scale(1 1) rotate(0) translate(4 94)">
<!-- sbyte -->
<g id="node1" class="node">
<title>sbyte</title>
<path fill="#e8e8e8" stroke="black" d="M54.3,-90C54.3,-90 12,-90 12,-90 6,-90 0,-84 0,-78 0,-78 0,-66 0,-66 0,-60 6,-54 12,-54 12,-54 54.3,-54 54.3,-54 60.3,-54 66.3,-60 66.3,-66 66.3,-66 66.3,-78 66.3,-78 66.3,-84 60.3,-90 54.3,-90"/>
<text text-anchor="middle" x="33.15" y="-67.53" font-family="Courier New" font-size="13.00">sbyte</text>
</g>
<!-- short -->
<g id="node3" class="node">
<title>short</title>
<path fill="#e8e8e8" stroke="black" d="M156.6,-63C156.6,-63 114.3,-63 114.3,-63 108.3,-63 102.3,-57 102.3,-51 102.3,-51 102.3,-39 102.3,-39 102.3,-33 108.3,-27 114.3,-27 114.3,-27 156.6,-27 156.6,-27 162.6,-27 168.6,-33 168.6,-39 168.6,-39 168.6,-51 168.6,-51 168.6,-57 162.6,-63 156.6,-63"/>
<text text-anchor="middle" x="135.45" y="-40.52" font-family="Courier New" font-size="13.00">short</text>
</g>
<!-- sbyte&#45;&gt;short -->
<g id="edge1" class="edge">
<title>sbyte&#45;&gt;short</title>
<path fill="none" stroke="#555555" d="M66.71,-63.23C75.12,-60.97 84.28,-58.51 93.07,-56.14"/>
<polygon fill="#555555" stroke="#555555" points="93.59,-58.9 100.59,-54.12 92.13,-53.49 93.59,-58.9"/>
</g>
<!-- byte -->
<g id="node2" class="node">
<title>byte</title>
<path fill="#e8e8e8" stroke="black" d="M50.55,-36C50.55,-36 15.75,-36 15.75,-36 9.75,-36 3.75,-30 3.75,-24 3.75,-24 3.75,-12 3.75,-12 3.75,-6 9.75,0 15.75,0 15.75,0 50.55,0 50.55,0 56.55,0 62.55,-6 62.55,-12 62.55,-12 62.55,-24 62.55,-24 62.55,-30 56.55,-36 50.55,-36"/>
<text text-anchor="middle" x="33.15" y="-13.53" font-family="Courier New" font-size="13.00">byte</text>
</g>
<!-- byte&#45;&gt;short -->
<g id="edge2" class="edge">
<title>byte&#45;&gt;short</title>
<path fill="none" stroke="#555555" d="M62.89,-25.74C72.2,-28.24 82.72,-31.07 92.77,-33.78"/>
<polygon fill="#555555" stroke="#555555" points="91.91,-36.45 100.36,-35.82 93.36,-31.04 91.91,-36.45"/>
</g>
<!-- int -->
<g id="node4" class="node">
<title>int</title>
<path fill="#e8e8e8" stroke="black" d="M246.6,-63C246.6,-63 216.6,-63 216.6,-63 210.6,-63 204.6,-57 204.6,-51 204.6,-51 204.6,-39 204.6,-39 204.6,-33 210.6,-27 216.6,-27 216.6,-27 246.6,-27 246.6,-27 252.6,-27 258.6,-33 258.6,-39 258.6,-39 258.6,-51 258.6,-51 258.6,-57 252.6,-63 246.6,-63"/>
<text text-anchor="middle" x="231.6" y="-40.52" font-family="Courier New" font-size="13.00">int</text>
</g>
<!-- short&#45;&gt;int -->
<g id="edge3" class="edge">
<title>short&#45;&gt;int</title>
<path fill="none" stroke="#555555" d="M168.85,-45C177.28,-45 186.4,-45 194.98,-45"/>
<polygon fill="#555555" stroke="#555555" points="194.86,-47.8 202.86,-45 194.86,-42.2 194.86,-47.8"/>
</g>
<!-- long -->
<g id="node5" class="node">
<title>long</title>
<path fill="#e8e8e8" stroke="black" d="M341.4,-63C341.4,-63 306.6,-63 306.6,-63 300.6,-63 294.6,-57 294.6,-51 294.6,-51 294.6,-39 294.6,-39 294.6,-33 300.6,-27 306.6,-27 306.6,-27 341.4,-27 341.4,-27 347.4,-27 353.4,-33 353.4,-39 353.4,-39 353.4,-51 353.4,-51 353.4,-57 347.4,-63 341.4,-63"/>
<text text-anchor="middle" x="324" y="-40.52" font-family="Courier New" font-size="13.00">long</text>
</g>
<!-- int&#45;&gt;long -->
<g id="edge4" class="edge">
<title>int&#45;&gt;long</title>
<path fill="none" stroke="#555555" d="M258.75,-45C266.94,-45 276.16,-45 285,-45"/>
<polygon fill="#555555" stroke="#555555" points="284.87,-47.8 292.87,-45 284.87,-42.2 284.87,-47.8"/>
</g>
<!-- float -->
<g id="node6" class="node">
<title>float</title>
<path fill="#e8e8e8" stroke="black" d="M451.2,-90C451.2,-90 408.9,-90 408.9,-90 402.9,-90 396.9,-84 396.9,-78 396.9,-78 396.9,-66 396.9,-66 396.9,-60 402.9,-54 408.9,-54 408.9,-54 451.2,-54 451.2,-54 457.2,-54 463.2,-60 463.2,-66 463.2,-66 463.2,-78 463.2,-78 463.2,-84 457.2,-90 451.2,-90"/>
<text text-anchor="middle" x="430.05" y="-67.53" font-family="Courier New" font-size="13.00">float</text>
</g>
<!-- long&#45;&gt;float -->
<g id="edge5" class="edge">
<title>long&#45;&gt;float</title>
<path fill="none" stroke="#555555" d="M353.71,-52.45C364.24,-55.18 376.39,-58.34 387.81,-61.3"/>
<polygon fill="#555555" stroke="#555555" points="386.86,-63.94 395.31,-63.24 388.27,-58.52 386.86,-63.94"/>
</g>
<!-- decimal -->
<g id="node8" class="node">
<title>decimal</title>
<path fill="#e8e8e8" stroke="black" d="M458.7,-36C458.7,-36 401.4,-36 401.4,-36 395.4,-36 389.4,-30 389.4,-24 389.4,-24 389.4,-12 389.4,-12 389.4,-6 395.4,0 401.4,0 401.4,0 458.7,0 458.7,0 464.7,0 470.7,-6 470.7,-12 470.7,-12 470.7,-24 470.7,-24 470.7,-30 464.7,-36 458.7,-36"/>
<text text-anchor="middle" x="430.05" y="-13.53" font-family="Courier New" font-size="13.00">decimal</text>
</g>
<!-- long&#45;&gt;decimal -->
<g id="edge6" class="edge">
<title>long&#45;&gt;decimal</title>
<path fill="none" stroke="#555555" stroke-dasharray="5,2" d="M353.71,-37.55C361.92,-35.42 371.11,-33.04 380.17,-30.68"/>
<polygon fill="#555555" stroke="#555555" points="380.64,-33.46 387.68,-28.74 379.23,-28.03 380.64,-33.46"/>
</g>
<!-- double -->
<g id="node7" class="node">
<title>double</title>
<path fill="#e8e8e8" stroke="black" d="M568.5,-90C568.5,-90 518.7,-90 518.7,-90 512.7,-90 506.7,-84 506.7,-78 506.7,-78 506.7,-66 506.7,-66 506.7,-60 512.7,-54 518.7,-54 518.7,-54 568.5,-54 568.5,-54 574.5,-54 580.5,-60 580.5,-66 580.5,-66 580.5,-78 580.5,-78 580.5,-84 574.5,-90 568.5,-90"/>
<text text-anchor="middle" x="543.6" y="-67.53" font-family="Courier New" font-size="13.00">double</text>
</g>
<!-- float&#45;&gt;double -->
<g id="edge7" class="edge">
<title>float&#45;&gt;double</title>
<path fill="none" stroke="#555555" d="M463.61,-72C474.06,-72 485.84,-72 497.04,-72"/>
<polygon fill="#555555" stroke="#555555" points="496.76,-74.8 504.76,-72 496.76,-69.2 496.76,-74.8"/>
</g>
</g>
</svg>
